# xmcd
#
# Track frame offsets:
#	183
#	28388
#	57740
#	87933
#	118033
#	147555
#	175253
#	205895
#	236240
#
# Disc length: 3173 seconds
#
# Revision: 0
# Processed by: cddbd v1.5.1PL0 Copyright (c) Steve Scherf et al.
# Submitted via: dBpowerAMP V4.0
#
DISCID=8d0c6309
DTITLE=Philippe Ganter - Blues Session
DYEAR=1992
DGENRE=Blues
TTITLE0=Windy city blues
TTITLE1=Kimbo
TTITLE2=Leen's song
TTITLE3=St. Marcel
TTITLE4=Brainville
TTITLE5=Mary's bib
TTITLE6=Palestro
TTITLE7=Fend l'Azur
TTITLE8=Ghost track
EXTD=
EXTT0=
EXTT1=
EXTT2=
EXTT3=
EXTT4=
EXTT5=
EXTT6=
EXTT7=
EXTT8=
PLAYORDER=
